<mxfile host="Electron" agent="Mozilla/5.0 (Macintosh; Intel Mac OS X 10_15_7) AppleWebKit/537.36 (KHTML, like Gecko) draw.io/27.0.2 Chrome/134.0.6998.205 Electron/35.3.0 Safari/537.36" version="27.0.2" pages="3">
  <diagram id="w3vzc-UgiHLJXo3HH2na" name="Overview">
    <mxGraphModel dx="1234" dy="883" grid="1" gridSize="10" guides="1" tooltips="1" connect="1" arrows="1" fold="1" page="1" pageScale="1" pageWidth="827" pageHeight="1169" math="0" shadow="0">
      <root>
        <mxCell id="0" />
        <mxCell id="1" parent="0" />
        <mxCell id="xttaKlOKFHiXQASEMKi4-7" value="" style="group" parent="1" vertex="1" connectable="0">
          <mxGeometry x="182" y="250" width="63" height="80" as="geometry" />
        </mxCell>
        <mxCell id="xttaKlOKFHiXQASEMKi4-3" value="" style="sketch=0;outlineConnect=0;fontColor=#232F3E;gradientColor=none;fillColor=#232F3D;strokeColor=none;dashed=0;verticalLabelPosition=bottom;verticalAlign=top;align=center;html=1;fontSize=12;fontStyle=0;aspect=fixed;pointerEvents=1;shape=mxgraph.aws4.document;" parent="xttaKlOKFHiXQASEMKi4-7" vertex="1">
          <mxGeometry x="-17" y="-13" width="57" height="78" as="geometry" />
        </mxCell>
        <mxCell id="xttaKlOKFHiXQASEMKi4-6" value="" style="rounded=0;whiteSpace=wrap;html=1;strokeColor=none;" parent="xttaKlOKFHiXQASEMKi4-7" vertex="1">
          <mxGeometry x="3" width="60" height="80" as="geometry" />
        </mxCell>
        <mxCell id="xttaKlOKFHiXQASEMKi4-4" value="" style="sketch=0;outlineConnect=0;fontColor=#232F3E;gradientColor=none;fillColor=#232F3D;strokeColor=none;dashed=0;verticalLabelPosition=bottom;verticalAlign=top;align=center;html=1;fontSize=12;fontStyle=0;aspect=fixed;pointerEvents=1;shape=mxgraph.aws4.document;" parent="xttaKlOKFHiXQASEMKi4-7" vertex="1">
          <mxGeometry width="57" height="78" as="geometry" />
        </mxCell>
        <mxCell id="xttaKlOKFHiXQASEMKi4-16" value="" style="sketch=0;outlineConnect=0;fontColor=#232F3E;gradientColor=none;fillColor=#232F3D;strokeColor=none;dashed=0;verticalLabelPosition=bottom;verticalAlign=top;align=center;html=1;fontSize=12;fontStyle=0;aspect=fixed;pointerEvents=1;shape=mxgraph.aws4.gear;" parent="1" vertex="1">
          <mxGeometry x="161" y="440" width="78" height="78" as="geometry" />
        </mxCell>
        <mxCell id="xttaKlOKFHiXQASEMKi4-17" value="&lt;font style=&quot;font-size: 20px;&quot;&gt;Corpus&lt;/font&gt;" style="text;html=1;align=center;verticalAlign=middle;resizable=0;points=[];autosize=1;strokeColor=none;fillColor=none;" parent="1" vertex="1">
          <mxGeometry x="146" y="195" width="90" height="40" as="geometry" />
        </mxCell>
        <mxCell id="xttaKlOKFHiXQASEMKi4-18" value="&lt;font style=&quot;font-size: 20px;&quot;&gt;Independent&lt;/font&gt;&lt;div&gt;&lt;font style=&quot;font-size: 20px;&quot;&gt;Variables&lt;/font&gt;&lt;/div&gt;" style="text;html=1;align=center;verticalAlign=middle;resizable=0;points=[];autosize=1;strokeColor=none;fillColor=none;" parent="1" vertex="1">
          <mxGeometry x="135" y="518" width="130" height="60" as="geometry" />
        </mxCell>
        <mxCell id="BStJQmJYgxgP8or_B4xh-1" value="" style="endArrow=classic;html=1;rounded=0;" edge="1" parent="1">
          <mxGeometry width="50" height="50" relative="1" as="geometry">
            <mxPoint x="260" y="280" as="sourcePoint" />
            <mxPoint x="400" y="220" as="targetPoint" />
          </mxGeometry>
        </mxCell>
        <mxCell id="BStJQmJYgxgP8or_B4xh-2" value="" style="endArrow=classic;html=1;rounded=0;" edge="1" parent="1">
          <mxGeometry width="50" height="50" relative="1" as="geometry">
            <mxPoint x="260" y="280" as="sourcePoint" />
            <mxPoint x="400" y="320" as="targetPoint" />
          </mxGeometry>
        </mxCell>
        <mxCell id="BStJQmJYgxgP8or_B4xh-5" value="" style="shape=mxgraph.networks2.icon;aspect=fixed;fillColor=#EDEDED;strokeColor=#000000;gradientColor=#5B6163;network2IconShadow=1;network2bgFillColor=none;network2Icon=mxgraph.networks2.user_female;network2IconXOffset=-0.0011;network2IconYOffset=-0.003;network2IconW=0.8096;network2IconH=0.994;" vertex="1" parent="1">
          <mxGeometry x="440" y="311.48" width="40.48" height="49.7" as="geometry" />
        </mxCell>
        <mxCell id="BStJQmJYgxgP8or_B4xh-6" value="" style="shape=mxgraph.networks2.icon;aspect=fixed;fillColor=#EDEDED;strokeColor=#000000;gradientColor=#5B6163;network2IconShadow=1;network2bgFillColor=none;network2Icon=mxgraph.networks2.user_male;network2IconW=0.8918;network2IconH=1.0003;" vertex="1" parent="1">
          <mxGeometry x="480" y="311.48" width="44.59" height="50.015" as="geometry" />
        </mxCell>
        <mxCell id="BStJQmJYgxgP8or_B4xh-8" value="&lt;font style=&quot;font-size: 20px;&quot;&gt;Expert&lt;/font&gt;&lt;div&gt;&lt;font style=&quot;font-size: 20px;&quot;&gt;Annotations&lt;/font&gt;&lt;/div&gt;" style="text;html=1;align=center;verticalAlign=middle;resizable=0;points=[];autosize=1;strokeColor=none;fillColor=none;" vertex="1" parent="1">
          <mxGeometry x="420" y="361.5" width="130" height="60" as="geometry" />
        </mxCell>
        <mxCell id="BStJQmJYgxgP8or_B4xh-9" value="&lt;font style=&quot;font-size: 20px;&quot;&gt;Generated&lt;/font&gt;&lt;div&gt;&lt;font style=&quot;font-size: 20px;&quot;&gt;Annotations&lt;/font&gt;&lt;/div&gt;" style="text;html=1;align=center;verticalAlign=middle;resizable=0;points=[];autosize=1;strokeColor=none;fillColor=none;" vertex="1" parent="1">
          <mxGeometry x="414" y="221.5" width="130" height="60" as="geometry" />
        </mxCell>
        <mxCell id="BStJQmJYgxgP8or_B4xh-10" value="" style="shape=mxgraph.networks2.icon;aspect=fixed;fillColor=#EDEDED;strokeColor=#000000;gradientColor=#5B6163;network2IconShadow=1;network2bgFillColor=none;network2Icon=mxgraph.networks2.pc;network2IconYOffset=-0.0593;network2IconW=0.9999;network2IconH=0.7096;" vertex="1" parent="1">
          <mxGeometry x="433" y="158.5" width="84.55" height="60" as="geometry" />
        </mxCell>
        <mxCell id="BStJQmJYgxgP8or_B4xh-11" value="" style="shape=image;verticalLabelPosition=bottom;labelBackgroundColor=default;verticalAlign=top;aspect=fixed;imageAspect=0;image=https://cdn-icons-png.flaticon.com/512/2103/2103601.png;" vertex="1" parent="1">
          <mxGeometry x="710" y="340" width="100" height="100" as="geometry" />
        </mxCell>
        <mxCell id="BStJQmJYgxgP8or_B4xh-12" value="&lt;font style=&quot;font-size: 20px;&quot;&gt;Downstream&lt;/font&gt;&lt;div&gt;&lt;font style=&quot;font-size: 20px;&quot;&gt;Statistical&lt;/font&gt;&lt;/div&gt;&lt;div&gt;&lt;font style=&quot;font-size: 20px;&quot;&gt;Analysis&lt;/font&gt;&lt;/div&gt;" style="text;html=1;align=center;verticalAlign=middle;resizable=0;points=[];autosize=1;strokeColor=none;fillColor=none;" vertex="1" parent="1">
          <mxGeometry x="685" y="425" width="140" height="90" as="geometry" />
        </mxCell>
        <mxCell id="BStJQmJYgxgP8or_B4xh-13" value="" style="endArrow=classic;html=1;rounded=0;" edge="1" parent="1">
          <mxGeometry width="50" height="50" relative="1" as="geometry">
            <mxPoint x="545" y="231.5" as="sourcePoint" />
            <mxPoint x="690" y="360" as="targetPoint" />
          </mxGeometry>
        </mxCell>
        <mxCell id="BStJQmJYgxgP8or_B4xh-14" value="" style="endArrow=classic;html=1;rounded=0;" edge="1" parent="1">
          <mxGeometry width="50" height="50" relative="1" as="geometry">
            <mxPoint x="544" y="350" as="sourcePoint" />
            <mxPoint x="680" y="400" as="targetPoint" />
          </mxGeometry>
        </mxCell>
        <mxCell id="BStJQmJYgxgP8or_B4xh-15" value="" style="endArrow=classic;html=1;rounded=0;" edge="1" parent="1">
          <mxGeometry width="50" height="50" relative="1" as="geometry">
            <mxPoint x="270" y="490" as="sourcePoint" />
            <mxPoint x="686" y="460" as="targetPoint" />
          </mxGeometry>
        </mxCell>
      </root>
    </mxGraphModel>
  </diagram>
  <diagram name="Model Types" id="1sJ4JY_TaEHqASatYTXw">
    <mxGraphModel dx="1028" dy="736" grid="1" gridSize="10" guides="1" tooltips="1" connect="1" arrows="1" fold="1" page="1" pageScale="1" pageWidth="827" pageHeight="1169" math="0" shadow="0">
      <root>
        <mxCell id="0" />
        <mxCell id="1" parent="0" />
        <mxCell id="Sx8lDS6GmNJZfWwcGNyR-10" value="" style="rounded=0;whiteSpace=wrap;html=1;fillColor=none;strokeColor=#000000;" parent="1" vertex="1">
          <mxGeometry x="280" width="260" height="270" as="geometry" />
        </mxCell>
        <mxCell id="l61xByO3hdMPGCZeGZZp-8" value="" style="group" parent="1" vertex="1" connectable="0">
          <mxGeometry x="280" y="50" width="250" height="200" as="geometry" />
        </mxCell>
        <mxCell id="l61xByO3hdMPGCZeGZZp-1" value="LLM" style="rounded=0;whiteSpace=wrap;html=1;fillColor=#dae8fc;strokeColor=#6c8ebf;fillStyle=cross-hatch;" parent="l61xByO3hdMPGCZeGZZp-8" vertex="1">
          <mxGeometry x="40" width="80" height="200" as="geometry" />
        </mxCell>
        <mxCell id="l61xByO3hdMPGCZeGZZp-3" value="Expert" style="rounded=0;whiteSpace=wrap;html=1;fillColor=#ffe6cc;strokeColor=#d79b00;" parent="l61xByO3hdMPGCZeGZZp-8" vertex="1">
          <mxGeometry x="140" width="80" height="40" as="geometry" />
        </mxCell>
        <mxCell id="l61xByO3hdMPGCZeGZZp-4" value="N" style="shape=curlyBracket;whiteSpace=wrap;html=1;rounded=1;labelPosition=left;verticalLabelPosition=middle;align=right;verticalAlign=middle;size=0.5;" parent="l61xByO3hdMPGCZeGZZp-8" vertex="1">
          <mxGeometry x="20" width="10" height="200" as="geometry" />
        </mxCell>
        <mxCell id="l61xByO3hdMPGCZeGZZp-5" value="n" style="shape=curlyBracket;whiteSpace=wrap;html=1;rounded=1;flipH=1;labelPosition=right;verticalLabelPosition=middle;align=left;verticalAlign=middle;" parent="l61xByO3hdMPGCZeGZZp-8" vertex="1">
          <mxGeometry x="230" width="10" height="40" as="geometry" />
        </mxCell>
        <mxCell id="l61xByO3hdMPGCZeGZZp-30" value="Expert-Only" style="text;html=1;align=center;verticalAlign=middle;resizable=0;points=[];autosize=1;strokeColor=none;fillColor=none;fontStyle=4" parent="1" vertex="1">
          <mxGeometry x="369.5" y="10" width="81" height="26" as="geometry" />
        </mxCell>
        <mxCell id="Sx8lDS6GmNJZfWwcGNyR-1" value="" style="rounded=0;whiteSpace=wrap;html=1;fillColor=none;strokeColor=#000000;" parent="1" vertex="1">
          <mxGeometry width="260" height="270" as="geometry" />
        </mxCell>
        <mxCell id="Sx8lDS6GmNJZfWwcGNyR-2" value="" style="group" parent="1" vertex="1" connectable="0">
          <mxGeometry y="50" width="250" height="200" as="geometry" />
        </mxCell>
        <mxCell id="Sx8lDS6GmNJZfWwcGNyR-3" value="LLM" style="rounded=0;whiteSpace=wrap;html=1;fillColor=#dae8fc;strokeColor=#6c8ebf;fillStyle=cross-hatch;" parent="Sx8lDS6GmNJZfWwcGNyR-2" vertex="1">
          <mxGeometry x="40" width="80" height="200" as="geometry" />
        </mxCell>
        <mxCell id="Sx8lDS6GmNJZfWwcGNyR-4" value="Expert" style="rounded=0;whiteSpace=wrap;html=1;fillColor=#ffe6cc;strokeColor=#d79b00;" parent="Sx8lDS6GmNJZfWwcGNyR-2" vertex="1">
          <mxGeometry x="140" width="80" height="200" as="geometry" />
        </mxCell>
        <mxCell id="Sx8lDS6GmNJZfWwcGNyR-5" value="N" style="shape=curlyBracket;whiteSpace=wrap;html=1;rounded=1;labelPosition=left;verticalLabelPosition=middle;align=right;verticalAlign=middle;size=0.5;" parent="Sx8lDS6GmNJZfWwcGNyR-2" vertex="1">
          <mxGeometry x="20" width="10" height="200" as="geometry" />
        </mxCell>
        <mxCell id="Sx8lDS6GmNJZfWwcGNyR-6" value="n" style="shape=curlyBracket;whiteSpace=wrap;html=1;rounded=1;flipH=1;labelPosition=right;verticalLabelPosition=middle;align=left;verticalAlign=middle;" parent="Sx8lDS6GmNJZfWwcGNyR-2" vertex="1">
          <mxGeometry x="230" width="10" height="200" as="geometry" />
        </mxCell>
        <mxCell id="Sx8lDS6GmNJZfWwcGNyR-9" value="Reference" style="text;html=1;align=center;verticalAlign=middle;resizable=0;points=[];autosize=1;strokeColor=none;fillColor=none;fontStyle=4" parent="1" vertex="1">
          <mxGeometry x="90" y="8" width="80" height="30" as="geometry" />
        </mxCell>
        <mxCell id="nx294IfxjVqHFSOIsTD_-1" value="" style="rounded=0;whiteSpace=wrap;html=1;fillColor=none;strokeColor=#000000;" vertex="1" parent="1">
          <mxGeometry x="140" y="288" width="260" height="270" as="geometry" />
        </mxCell>
        <mxCell id="nx294IfxjVqHFSOIsTD_-2" value="" style="group" vertex="1" connectable="0" parent="1">
          <mxGeometry x="140" y="330" width="250" height="200" as="geometry" />
        </mxCell>
        <mxCell id="nx294IfxjVqHFSOIsTD_-3" value="LLM" style="rounded=0;whiteSpace=wrap;html=1;fillColor=#dae8fc;strokeColor=#6c8ebf;fillStyle=solid;" vertex="1" parent="nx294IfxjVqHFSOIsTD_-2">
          <mxGeometry x="40" width="80" height="200" as="geometry" />
        </mxCell>
        <mxCell id="nx294IfxjVqHFSOIsTD_-4" value="Expert" style="rounded=0;whiteSpace=wrap;html=1;fillColor=#ffe6cc;strokeColor=#d79b00;" vertex="1" parent="nx294IfxjVqHFSOIsTD_-2">
          <mxGeometry x="140" width="80" height="40" as="geometry" />
        </mxCell>
        <mxCell id="nx294IfxjVqHFSOIsTD_-5" value="N" style="shape=curlyBracket;whiteSpace=wrap;html=1;rounded=1;labelPosition=left;verticalLabelPosition=middle;align=right;verticalAlign=middle;size=0.5;" vertex="1" parent="nx294IfxjVqHFSOIsTD_-2">
          <mxGeometry x="20" width="10" height="200" as="geometry" />
        </mxCell>
        <mxCell id="nx294IfxjVqHFSOIsTD_-6" value="n" style="shape=curlyBracket;whiteSpace=wrap;html=1;rounded=1;flipH=1;labelPosition=right;verticalLabelPosition=middle;align=left;verticalAlign=middle;" vertex="1" parent="nx294IfxjVqHFSOIsTD_-2">
          <mxGeometry x="230" width="10" height="40" as="geometry" />
        </mxCell>
        <mxCell id="nx294IfxjVqHFSOIsTD_-7" value="Combined" style="text;html=1;align=center;verticalAlign=middle;resizable=0;points=[];autosize=1;strokeColor=none;fillColor=none;fontStyle=4" vertex="1" parent="1">
          <mxGeometry x="230" y="288" width="80" height="30" as="geometry" />
        </mxCell>
      </root>
    </mxGraphModel>
  </diagram>
  <diagram id="JAFfU2PX-3wZMBfO_fyT" name="Experiments">
    <mxGraphModel dx="705" dy="505" grid="1" gridSize="10" guides="1" tooltips="1" connect="1" arrows="1" fold="1" page="1" pageScale="1" pageWidth="827" pageHeight="1169" math="0" shadow="0">
      <root>
        <mxCell id="0" />
        <mxCell id="1" parent="0" />
        <mxCell id="dg7wulLV-3gYQRI2nREf-1" value="" style="rounded=0;whiteSpace=wrap;html=1;fillColor=none;strokeColor=#000000;" vertex="1" parent="1">
          <mxGeometry x="150" y="150" width="260" height="270" as="geometry" />
        </mxCell>
        <mxCell id="dg7wulLV-3gYQRI2nREf-2" value="" style="group" vertex="1" connectable="0" parent="1">
          <mxGeometry x="160" y="200" width="250" height="200" as="geometry" />
        </mxCell>
        <mxCell id="dg7wulLV-3gYQRI2nREf-3" value="" style="rounded=0;whiteSpace=wrap;html=1;fillColor=none;strokeColor=#d79b00;dashed=1;" vertex="1" parent="dg7wulLV-3gYQRI2nREf-2">
          <mxGeometry x="130" width="80" height="200" as="geometry" />
        </mxCell>
        <mxCell id="dg7wulLV-3gYQRI2nREf-4" value="LLM" style="rounded=0;whiteSpace=wrap;html=1;fillColor=#dae8fc;strokeColor=#6c8ebf;" vertex="1" parent="dg7wulLV-3gYQRI2nREf-2">
          <mxGeometry x="30" width="80" height="200" as="geometry" />
        </mxCell>
        <mxCell id="dg7wulLV-3gYQRI2nREf-5" value="Expert" style="rounded=0;whiteSpace=wrap;html=1;fillColor=#ffe6cc;strokeColor=#d79b00;" vertex="1" parent="dg7wulLV-3gYQRI2nREf-2">
          <mxGeometry x="130" width="80" height="40" as="geometry" />
        </mxCell>
        <mxCell id="dg7wulLV-3gYQRI2nREf-6" value="N" style="shape=curlyBracket;whiteSpace=wrap;html=1;rounded=1;labelPosition=left;verticalLabelPosition=middle;align=right;verticalAlign=middle;size=0.5;" vertex="1" parent="dg7wulLV-3gYQRI2nREf-2">
          <mxGeometry x="10" width="10" height="200" as="geometry" />
        </mxCell>
        <mxCell id="dg7wulLV-3gYQRI2nREf-7" value="n" style="shape=curlyBracket;whiteSpace=wrap;html=1;rounded=1;flipH=1;labelPosition=right;verticalLabelPosition=middle;align=left;verticalAlign=middle;" vertex="1" parent="dg7wulLV-3gYQRI2nREf-2">
          <mxGeometry x="220" width="10" height="40" as="geometry" />
        </mxCell>
        <mxCell id="dg7wulLV-3gYQRI2nREf-8" value="" style="shape=flexArrow;endArrow=classic;html=1;rounded=0;width=7.356321839080461;endSize=5.786206896551725;endWidth=10.722684634694149;fillColor=none;strokeColor=#d79b00;" edge="1" parent="dg7wulLV-3gYQRI2nREf-2">
          <mxGeometry width="50" height="50" relative="1" as="geometry">
            <mxPoint x="169.89000000000004" y="50" as="sourcePoint" />
            <mxPoint x="169.89000000000004" y="90" as="targetPoint" />
          </mxGeometry>
        </mxCell>
        <mxCell id="dg7wulLV-3gYQRI2nREf-9" value="" style="group" vertex="1" connectable="0" parent="1">
          <mxGeometry x="430" y="200" width="260" height="220" as="geometry" />
        </mxCell>
        <mxCell id="dg7wulLV-3gYQRI2nREf-10" value="" style="rounded=0;whiteSpace=wrap;html=1;fillColor=none;strokeColor=#000000;" vertex="1" parent="dg7wulLV-3gYQRI2nREf-9">
          <mxGeometry y="-50" width="260" height="270" as="geometry" />
        </mxCell>
        <mxCell id="dg7wulLV-3gYQRI2nREf-11" value="" style="rounded=0;whiteSpace=wrap;html=1;fillColor=none;strokeColor=#6c8ebf;dashed=1;" vertex="1" parent="dg7wulLV-3gYQRI2nREf-9">
          <mxGeometry x="40" width="80" height="200" as="geometry" />
        </mxCell>
        <mxCell id="dg7wulLV-3gYQRI2nREf-12" value="LLM" style="rounded=0;whiteSpace=wrap;html=1;fillColor=#dae8fc;strokeColor=#6c8ebf;" vertex="1" parent="dg7wulLV-3gYQRI2nREf-9">
          <mxGeometry x="40" width="80" height="40" as="geometry" />
        </mxCell>
        <mxCell id="dg7wulLV-3gYQRI2nREf-13" value="Expert" style="rounded=0;whiteSpace=wrap;html=1;fillColor=#ffe6cc;strokeColor=#d79b00;" vertex="1" parent="dg7wulLV-3gYQRI2nREf-9">
          <mxGeometry x="140" width="80" height="40" as="geometry" />
        </mxCell>
        <mxCell id="dg7wulLV-3gYQRI2nREf-14" value="N" style="shape=curlyBracket;whiteSpace=wrap;html=1;rounded=1;labelPosition=left;verticalLabelPosition=middle;align=right;verticalAlign=middle;size=0.5;" vertex="1" parent="dg7wulLV-3gYQRI2nREf-9">
          <mxGeometry x="20" width="10" height="200" as="geometry" />
        </mxCell>
        <mxCell id="dg7wulLV-3gYQRI2nREf-15" value="n" style="shape=curlyBracket;whiteSpace=wrap;html=1;rounded=1;flipH=1;labelPosition=right;verticalLabelPosition=middle;align=left;verticalAlign=middle;" vertex="1" parent="dg7wulLV-3gYQRI2nREf-9">
          <mxGeometry x="230" width="10" height="40" as="geometry" />
        </mxCell>
        <mxCell id="dg7wulLV-3gYQRI2nREf-16" value="" style="shape=flexArrow;endArrow=classic;html=1;rounded=0;width=7.356321839080461;endSize=5.786206896551725;endWidth=10.722684634694149;fillColor=none;strokeColor=#6c8ebf;" edge="1" parent="dg7wulLV-3gYQRI2nREf-9">
          <mxGeometry width="50" height="50" relative="1" as="geometry">
            <mxPoint x="79.71000000000004" y="50" as="sourcePoint" />
            <mxPoint x="79.71000000000004" y="90" as="targetPoint" />
          </mxGeometry>
        </mxCell>
        <mxCell id="dg7wulLV-3gYQRI2nREf-18" value="&lt;u&gt;Experiment 2&lt;/u&gt;" style="text;html=1;align=center;verticalAlign=middle;resizable=0;points=[];autosize=1;strokeColor=none;fillColor=none;" vertex="1" parent="dg7wulLV-3gYQRI2nREf-9">
          <mxGeometry x="85" y="-42" width="90" height="30" as="geometry" />
        </mxCell>
        <mxCell id="dg7wulLV-3gYQRI2nREf-17" value="&lt;u&gt;Experiment 1&lt;/u&gt;" style="text;html=1;align=center;verticalAlign=middle;resizable=0;points=[];autosize=1;strokeColor=none;fillColor=none;" vertex="1" parent="1">
          <mxGeometry x="235" y="158" width="90" height="30" as="geometry" />
        </mxCell>
      </root>
    </mxGraphModel>
  </diagram>
</mxfile>
